<?xml version="1.0" encoding="UTF-8" standalone="no"?><!DOCTYPE svg PUBLIC "-//W3C//DTD SVG 1.1//EN" "http://www.w3.org/Graphics/SVG/1.1/DTD/svg11.dtd"><svg width="100%" height="100%" viewBox="0 0 1522 1800" version="1.1" xmlns="http://www.w3.org/2000/svg" xmlns:xlink="http://www.w3.org/1999/xlink" xml:space="preserve" xmlns:serif="http://www.serif.com/" style="fill-rule:evenodd;clip-rule:evenodd;stroke-linecap:round;stroke-linejoin:round;stroke-miterlimit:1.5;"><rect x="0" y="0" width="1520" height="1800" style="fill:#1d6441;stroke:#1d6441;stroke-width:1.33px;"/><g><g><g><rect x="97.662" y="215.514" width="1342.34" height="5.92" style="fill:#fff;"/><rect x="97.662" y="798.608" width="1342.34" height="5.92" style="fill:#fff;"/><g transform="matrix(0.885767,0,0,1,-15.0609,0)"><g transform="matrix(66.5139,0,0,66.5139,418.159,177.468)"></g><text x="128.624px" y="177.468px" style="font-family:'Cochin';font-weight:500;font-size:66.514px;fill:#ffe698;">MASÁŽE</text></g><g transform="matrix(0.885767,0,0,1,-15.3907,-5.68434e-14)"><g transform="matrix(66.5139,0,0,66.5139,491.564,754.21)"></g><text x="125.737px" y="754.21px" style="font-family:'Cochin';font-weight:500;font-size:66.514px;fill:#ffe698;">PEDIKÚRA</text></g></g><g><g transform="matrix(0.341594,0,0,0.385648,-70.5521,-150.72)"><text x="566.929px" y="1275.59px" style="font-family:'Cochin';font-weight:500;font-size:132.708px;fill:#ffe698;">ZÁDA + ŠÍJE</text><text x="1428.47px" y="1275.59px" style="font-family:'Cochin-Bold', 'Cochin';font-weight:700;font-size:132.708px;fill:#ffe698;">30/50 min.</text><text x="566.929px" y="1408.3px" style="font-family:'Cochin';font-weight:500;font-size:132.708px;fill:#ffe698;">ZÁDA + ŠÍJE + RUCE ČI NOHY</text><text x="2583.43px" y="1408.3px" style="font-family:'Cochin-Bold', 'Cochin';font-weight:700;font-size:132.708px;fill:#ffe698;">60 min.</text><text x="566.929px" y="1541.01px" style="font-family:'Cochin';font-weight:500;font-size:132.708px;fill:#ffe698;">CELÉ TĚLO</text><text x="1367.95px" y="1541.01px" style="font-family:'Cochin-Bold', 'Cochin';font-weight:700;font-size:132.708px;fill:#ffe698;">90 min.</text><text x="566.929px" y="1673.72px" style="font-family:'Cochin';font-weight:500;font-size:132.708px;fill:#ffe698;">LÁVOVÉ KAMENY</text><text x="1815.45px" y="1673.72px" style="font-family:'Cochin-Bold', 'Cochin';font-weight:700;font-size:132.708px;fill:#ffe698;">50 min.</text><text x="566.929px" y="1806.42px" style="font-family:'Cochin';font-weight:500;font-size:132.708px;fill:#ffe698;">MEDOVÁ DETOXIKAČNÍ MASÁŽ</text><text x="2772.8px" y="1806.42px" style="font-family:'Cochin-Bold', 'Cochin';font-weight:700;font-size:132.708px;fill:#ffe698;">30/50 min.</text></g><g transform="matrix(0.344406,0,0,0.388822,1060.67,-605.666)"><text x="472.441px" y="2433.07px" style="font-family:'Cochin';font-weight:500;font-size:132.708px;fill:#ffe698;">480,-/720,-</text><text x="787.188px" y="2565.78px" style="font-family:'Cochin';font-weight:500;font-size:132.708px;fill:#ffe698;"><tspan x="787.188px " y="2565.78px ">8</tspan>00,-</text><text x="729.345px" y="2698.49px" style="font-family:'Cochin';font-weight:500;font-size:132.708px;fill:#ffe698;">1100,-</text><text x="787.188px" y="2831.2px" style="font-family:'Cochin';font-weight:500;font-size:132.708px;fill:#ffe698;"><tspan x="787.188px " y="2831.2px ">8</tspan>90,-</text><g transform="matrix(132.708,0,0,132.708,1062.2,2963.9)"></g><text x="472.441px" y="2963.9px" style="font-family:'Cochin';font-weight:500;font-size:132.708px;fill:#ffe698;">590,-/790,-</text></g></g><g transform="matrix(0.341594,0,0,0.385648,-67.781,437.76)"><text x="566.929px" y="1275.59px" style="font-family:'Cochin';font-weight:500;font-size:132.708px;fill:#ffe698;">PEDIKÚRA MOKRÁ</text><text x="1889.1px" y="1275.59px" style="font-family:'Cochin-Bold', 'Cochin';font-weight:700;font-size:132.708px;fill:#ffe698;">30-60 min</text><text x="2464.52px" y="1275.59px" style="font-family:'Cochin';font-weight:500;font-size:132.708px;fill:#ffe698;">.</text><text x="566.929px" y="1408.3px" style="font-family:'Cochin';font-weight:500;font-size:132.708px;fill:#ffe698;">PEDIKÚRA KOMBINOV<tspan x="2109.13px 2202.56px " y="1408.3px 1408.3px ">AN</tspan>Á</text><text x="2437.32px" y="1408.3px" style="font-family:'Cochin-Bold', 'Cochin';font-weight:700;font-size:132.708px;fill:#ffe698;">45-90 min.</text><text x="566.929px" y="1541.01px" style="font-family:'Cochin';font-weight:500;font-size:132.708px;fill:#ffe698;">PEDIKÚRA SUCHÁ</text><text x="1844.91px" y="1541.01px" style="font-family:'Cochin-Bold', 'Cochin';font-weight:700;font-size:132.708px;fill:#ffe698;">45-90 min.</text><text x="566.929px" y="1673.72px" style="font-family:'Cochin';font-weight:500;font-size:132.708px;fill:#ffe698;">LAK</text><text x="566.929px" y="1806.42px" style="font-family:'Cochin';font-weight:500;font-size:132.708px;fill:#ffe698;">GELLAK</text><text x="566.929px" y="1939.13px" style="font-family:'Cochin';font-weight:500;font-size:132.708px;fill:#ffe698;">NEHTOVÁ ROVNÁTKA (dle typu)</text><text x="566.929px" y="2071.84px" style="font-family:'Cochin';font-weight:500;font-size:132.708px;fill:#ffe698;">STUDENÝ P<tspan x="1352.16px 1445.59px " y="2071.84px 2071.84px ">AR</tspan>AFÍNOVÝ ZÁBAL</text><text x="2701.54px" y="2071.84px" style="font-family:'Cochin-Bold', 'Cochin';font-weight:700;font-size:132.708px;fill:#ffe698;">20 min.</text><text x="566.929px" y="2204.55px" style="font-family:'Cochin';font-weight:500;font-size:132.708px;fill:#ffe698;">REFLEXNÍ RELAXAČNÍ MASÁŽ</text><text x="2669.69px" y="2204.55px" style="font-family:'Cochin-Bold', 'Cochin';font-weight:700;font-size:132.708px;fill:#ffe698;">20 min.</text><text x="566.929px" y="2337.26px" style="font-family:'Cochin';font-weight:500;font-size:132.708px;fill:#ffe698;">ODSTRANĚNÍ KUŘÍHO OKA</text><text x="566.929px" y="2469.96px" style="font-family:'Cochin';font-weight:500;font-size:132.708px;fill:#ffe698;">T<tspan x="643.104px 736.53px " y="2469.96px 2469.96px ">AM</tspan>PONÁDA NA ZAROSTLÝ NEHET</text></g><g transform="matrix(0.344406,0,0,0.388822,1004.46,-20.3242)"><text x="944.561px" y="2433.07px" style="font-family:'Cochin';font-weight:500;font-size:132.708px;fill:#ffe698;"><tspan x="944.561px " y="2433.07px ">5</tspan>20,-</text><text x="944.561px" y="2565.78px" style="font-family:'Cochin';font-weight:500;font-size:132.708px;fill:#ffe698;"><tspan x="944.561px " y="2565.78px ">6</tspan>20,-</text><text x="944.561px" y="2698.49px" style="font-family:'Cochin';font-weight:500;font-size:132.708px;fill:#ffe698;"><tspan x="944.561px " y="2698.49px ">6</tspan>50,-</text><text x="944.561px" y="2831.2px" style="font-family:'Cochin';font-weight:500;font-size:132.708px;fill:#ffe698;"><tspan x="944.561px " y="2831.2px ">1</tspan>50,-</text><text x="944.561px" y="2963.9px" style="font-family:'Cochin';font-weight:500;font-size:132.708px;fill:#ffe698;"><tspan x="944.561px " y="2963.9px ">2</tspan>00,-</text><text x="472.441px" y="3096.61px" style="font-family:'Cochin';font-weight:500;font-size:132.708px;fill:#ffe698;">550,- až 750,-</text><text x="944.561px" y="3229.32px" style="font-family:'Cochin';font-weight:500;font-size:132.708px;fill:#ffe698;"><tspan x="944.561px " y="3229.32px ">1</tspan>80,-</text><text x="944.561px" y="3362.03px" style="font-family:'Cochin';font-weight:500;font-size:132.708px;fill:#ffe698;"><tspan x="944.561px " y="3362.03px ">3</tspan>00,-</text><text x="1010.92px" y="3494.74px" style="font-family:'Cochin';font-weight:500;font-size:132.708px;fill:#ffe698;">80,-</text><g transform="matrix(132.708,0,0,132.708,1220.99,3627.44)"></g><text x="1010.92px" y="3627.44px" style="font-family:'Cochin';font-weight:500;font-size:132.708px;fill:#ffe698;">80,-</text></g><g transform="matrix(0.46674,0,0,0.526933,-65.0644,-209.596)"><text x="2905.51px" y="3401.58px" style="font-family:'Cochin';font-weight:500;font-size:97.083px;fill:#ffe698;">1 000,-</text><g transform="matrix(97.0833,0,0,97.0833,3180.55,3498.66)"></g><text x="2978.32px" y="3498.66px" style="font-family:'Cochin';font-weight:500;font-size:97.083px;fill:#ffe698;">950,-</text></g></g><g transform="matrix(0.454405,0,0,0.513008,-45.8879,-227.896)"><text x="377.953px" y="3330.71px" style="font-family:'Cochin-Bold', 'Cochin';font-weight:700;font-size:99.531px;fill:#ffe698;">BALÍČKY</text><text x="377.953px" y="3529.77px" style="font-family:'Cochin';font-weight:500;font-size:99.531px;fill:#ffe698;">SUCHÁ PEDIKÚRA + ZÁBAL + MASÁŽ</text><g transform="matrix(99.5311,0,0,99.5311,2662.89,3629.3)"></g><text x="377.953px" y="3629.3px" style="font-family:'Cochin';font-weight:500;font-size:99.531px;fill:#ffe698;">KOMBINOV<tspan x="962.3px 1032.37px " y="3629.3px 3629.3px ">AN</tspan>Á PEDIKÚRA + ZÁBAL + MASÁŽ</text></g></g></svg>